<svg width="176" height="52" viewBox="0 0 176 52" fill="none" xmlns="http://www.w3.org/2000/svg">
<path d="M169 0H6.5C2.91015 0 0 2.91015 0 6.5V45.5C0 49.0898 2.91015 52 6.5 52H169C172.59 52 175.5 49.0898 175.5 45.5V6.5C175.5 2.91015 172.59 0 169 0Z" fill="black"/>
<path d="M169 1.04C170.448 1.04 171.837 1.61525 172.861 2.6392C173.885 3.66315 174.46 5.05192 174.46 6.5V45.5C174.46 46.9481 173.885 48.3369 172.861 49.3608C171.837 50.3848 170.448 50.96 169 50.96H6.5C5.05192 50.96 3.66315 50.3848 2.6392 49.3608C1.61525 48.3369 1.04 46.9481 1.04 45.5V6.5C1.04 5.05192 1.61525 3.66315 2.6392 2.6392C3.66315 1.61525 5.05192 1.04 6.5 1.04H169ZM169 0H6.5C4.77609 0 3.12279 0.684819 1.90381 1.90381C0.684819 3.12279 0 4.77609 0 6.5V45.5C0 47.2239 0.684819 48.8772 1.90381 50.0962C3.12279 51.3152 4.77609 52 6.5 52H169C170.724 52 172.377 51.3152 173.596 50.0962C174.815 48.8772 175.5 47.2239 175.5 45.5V6.5C175.5 4.77609 174.815 3.12279 173.596 1.90381C172.377 0.684819 170.724 0 169 0Z" fill="#A6A6A6"/>
<path d="M41.7468 25.1065C41.7108 21.1144 45.0156 19.1722 45.1667 19.0818C43.2951 16.353 40.3942 15.9802 39.3748 15.9505C36.9383 15.6941 34.575 17.4083 33.3339 17.4083C32.068 17.4083 30.1567 15.9752 28.0969 16.0173C25.4462 16.0582 22.9664 17.5929 21.6063 19.9761C18.7996 24.8353 20.8929 31.9761 23.582 35.9038C24.9272 37.8275 26.499 39.9753 28.5564 39.8997C30.5692 39.8167 31.3211 38.6165 33.7501 38.6165C36.1567 38.6165 36.8628 39.8997 38.961 39.8514C41.1212 39.8167 42.4813 37.9191 43.7794 35.9782C45.3339 33.7734 45.9582 31.602 45.9829 31.4905C45.9322 31.4732 41.7876 29.8914 41.7468 25.1065Z" fill="white"/>
<path d="M37.7831 13.3666C38.8657 12.0127 39.6064 10.1709 39.4008 8.30176C37.8339 8.37112 35.8744 9.38558 34.7459 10.7097C33.7476 11.8765 32.8558 13.789 33.0862 15.5875C34.8463 15.7188 36.6535 14.6994 37.7831 13.3666Z" fill="white"/>
<path d="M70.8757 39.6236H68.0628L66.5219 34.7817H61.166L59.6982 39.6236H56.9595L62.2659 23.1396H65.5434L70.8757 39.6236ZM66.0574 32.7503L64.6639 28.446C64.5165 28.0063 64.2403 26.9708 63.8328 25.3407H63.7832C63.621 26.0418 63.3596 27.0773 63.0004 28.446L61.6317 32.7503H66.0574Z" fill="white"/>
<path d="M84.5216 33.5336C84.5216 35.555 83.9754 37.1529 82.8829 38.3259C81.9043 39.3701 80.6892 39.8915 79.2388 39.8915C77.6731 39.8915 76.5484 39.3292 75.8635 38.2045H75.8139V44.4659H73.1731V31.6496C73.1731 30.3787 73.1397 29.0744 73.0753 27.7367H75.3977L75.5451 29.6207H75.5947C76.4753 28.2012 77.8119 27.4927 79.6054 27.4927C81.0076 27.4927 82.1781 28.0464 83.1145 29.1549C84.0534 30.2648 84.5216 31.7239 84.5216 33.5336ZM81.8313 33.6302C81.8313 32.4733 81.5712 31.5195 81.0484 30.7689C80.4774 29.9861 79.7107 29.5947 78.7495 29.5947C78.098 29.5947 77.5059 29.8127 76.977 30.2425C76.4469 30.676 76.1 31.2421 75.9378 31.9431C75.856 32.2701 75.8151 32.5377 75.8151 32.7483V34.7301C75.8151 35.5947 76.0802 36.3242 76.6104 36.92C77.1405 37.5158 77.8292 37.8131 78.6764 37.8131C79.6711 37.8131 80.4452 37.4291 80.9989 36.6636C81.5538 35.8969 81.8313 34.8862 81.8313 33.6302Z" fill="white"/>
<path d="M98.1928 33.5336C98.1928 35.555 97.6466 37.1529 96.5529 38.3259C95.5756 39.3701 94.3605 39.8915 92.91 39.8915C91.3444 39.8915 90.2197 39.3292 89.5359 38.2045H89.4864V44.4659H86.8456V31.6496C86.8456 30.3787 86.8122 29.0744 86.7477 27.7367H89.0702L89.2176 29.6207H89.2671C90.1466 28.2012 91.4831 27.4927 93.2779 27.4927C94.6788 27.4927 95.8493 28.0464 96.7882 29.1549C97.7234 30.2648 98.1928 31.7239 98.1928 33.5336ZM95.5025 33.6302C95.5025 32.4733 95.2411 31.5195 94.7184 30.7689C94.1474 29.9861 93.3832 29.5947 92.4208 29.5947C91.768 29.5947 91.1772 29.8127 90.647 30.2425C90.1169 30.676 89.7713 31.2421 89.609 31.9431C89.5285 32.2701 89.4864 32.5377 89.4864 32.7483V34.7301C89.4864 35.5947 89.7515 36.3242 90.2791 36.92C90.8093 37.5146 91.498 37.8131 92.3477 37.8131C93.3423 37.8131 94.1165 37.4291 94.6701 36.6636C95.2251 35.8969 95.5025 34.8862 95.5025 33.6302Z" fill="white"/>
<path d="M113.478 35.0003C113.478 36.4024 112.991 37.5432 112.014 38.4239C110.94 39.3863 109.445 39.8669 107.524 39.8669C105.75 39.8669 104.328 39.5251 103.252 38.8401L103.863 36.639C105.023 37.3401 106.295 37.6919 107.681 37.6919C108.676 37.6919 109.45 37.4664 110.006 37.0181C110.56 36.5697 110.836 35.9677 110.836 35.2171C110.836 34.5482 110.608 33.9846 110.151 33.5275C109.696 33.0705 108.937 32.6456 107.877 32.253C104.991 31.1766 103.549 29.5998 103.549 27.5263C103.549 26.1712 104.054 25.0601 105.066 24.1956C106.074 23.3297 107.42 22.8975 109.102 22.8975C110.602 22.8975 111.848 23.1588 112.842 23.6803L112.182 25.8331C111.253 25.3277 110.203 25.075 109.027 25.075C108.098 25.075 107.373 25.3042 106.852 25.76C106.413 26.1675 106.192 26.6642 106.192 27.2525C106.192 27.9041 106.444 28.4429 106.949 28.8665C107.389 29.2579 108.188 29.6815 109.347 30.1386C110.765 30.7096 111.807 31.3772 112.477 32.1427C113.145 32.9057 113.478 33.8607 113.478 35.0003Z" fill="white"/>
<path d="M122.209 29.7188H119.298V35.4897C119.298 36.9575 119.811 37.6908 120.839 37.6908C121.311 37.6908 121.702 37.6499 122.012 37.5681L122.085 39.5735C121.565 39.768 120.88 39.8658 120.031 39.8658C118.988 39.8658 118.173 39.5475 117.585 38.9121C116.999 38.2754 116.704 37.2077 116.704 35.7077V29.7164H114.97V27.7345H116.704V25.5582L119.298 24.7754V27.7345H122.209V29.7188Z" fill="white"/>
<path d="M135.342 33.5821C135.342 35.4091 134.82 36.9091 133.777 38.0821C132.683 39.2898 131.231 39.8918 129.422 39.8918C127.678 39.8918 126.289 39.3133 125.254 38.1564C124.218 36.9995 123.7 35.5392 123.7 33.779C123.7 31.9372 124.233 30.4285 125.302 29.2555C126.368 28.0813 127.808 27.4941 129.617 27.4941C131.361 27.4941 132.765 28.0726 133.824 29.2307C134.837 30.3542 135.342 31.8046 135.342 33.5821ZM132.602 33.6676C132.602 32.5714 132.368 31.6312 131.894 30.8472C131.34 29.8984 130.549 29.4252 129.523 29.4252C128.462 29.4252 127.655 29.8996 127.102 30.8472C126.627 31.6325 126.393 32.5875 126.393 33.7171C126.393 34.8133 126.627 35.7534 127.102 36.5363C127.673 37.4851 128.47 37.9582 129.5 37.9582C130.508 37.9582 131.299 37.4752 131.87 36.5115C132.357 35.7126 132.602 34.7625 132.602 33.6676Z" fill="white"/>
<path d="M143.926 30.0592C143.665 30.0108 143.386 29.9861 143.094 29.9861C142.165 29.9861 141.446 30.3366 140.941 31.0389C140.501 31.6582 140.281 32.4411 140.281 33.3862V39.6228H137.641L137.666 31.4799C137.666 30.1099 137.632 28.8626 137.567 27.7379H139.867L139.964 30.0121H140.037C140.315 29.2305 140.755 28.6013 141.357 28.1293C141.945 27.7045 142.581 27.4927 143.266 27.4927C143.51 27.4927 143.73 27.51 143.926 27.541V30.0592Z" fill="white"/>
<path d="M155.737 33.1177C155.737 33.5909 155.706 33.9897 155.64 34.3155H147.718C147.748 35.4897 148.131 36.3877 148.867 37.0071C149.535 37.5607 150.398 37.8382 151.458 37.8382C152.631 37.8382 153.701 37.6512 154.664 37.2758L155.078 39.109C153.953 39.5996 152.625 39.8436 151.093 39.8436C149.25 39.8436 147.803 39.301 146.75 38.2172C145.7 37.1334 145.173 35.678 145.173 33.8522C145.173 32.0599 145.663 30.5673 146.642 29.377C147.668 28.1061 149.054 27.4707 150.798 27.4707C152.511 27.4707 153.808 28.1061 154.689 29.377C155.386 30.3865 155.737 31.635 155.737 33.1177ZM153.218 32.4327C153.236 31.6499 153.064 30.9736 152.706 30.4026C152.248 29.6681 151.546 29.3014 150.601 29.3014C149.738 29.3014 149.035 29.6594 148.499 30.3778C148.059 30.9488 147.798 31.6338 147.718 32.4315H153.218V32.4327Z" fill="white"/>
<path d="M65.1846 12.9984C65.1846 14.4563 64.7473 15.5537 63.8741 16.2907C63.0652 16.9708 61.9158 17.3114 60.4269 17.3114C59.6887 17.3114 59.057 17.2792 58.5281 17.2148V9.24902C59.218 9.13754 59.9612 9.08057 60.7638 9.08057C62.1821 9.08057 63.251 9.38899 63.9719 10.0058C64.7795 10.7032 65.1846 11.7003 65.1846 12.9984ZM63.8159 13.0343C63.8159 12.0892 63.5657 11.3646 63.0652 10.8593C62.5648 10.3551 61.834 10.1025 60.8716 10.1025C60.4628 10.1025 60.1148 10.1297 59.8262 10.1867V16.2424C59.986 16.2672 60.2783 16.2784 60.7031 16.2784C61.6965 16.2784 62.4633 16.0021 63.0033 15.4497C63.5434 14.8973 63.8159 14.0921 63.8159 13.0343Z" fill="white"/>
<path d="M72.4419 14.2718C72.4419 15.1699 72.1855 15.9056 71.6727 16.4828C71.1351 17.0761 70.4229 17.3722 69.5335 17.3722C68.6764 17.3722 67.9939 17.0885 67.4848 16.5187C66.9769 15.9502 66.723 15.233 66.723 14.3684C66.723 13.4642 66.9844 12.7223 67.5096 12.1463C68.0348 11.5703 68.7408 11.2817 69.6301 11.2817C70.4873 11.2817 71.176 11.5654 71.6974 12.1339C72.1929 12.6864 72.4419 13.3998 72.4419 14.2718ZM71.0955 14.3139C71.0955 13.7751 70.979 13.3131 70.7474 12.9279C70.4749 12.4622 70.0872 12.2293 69.5831 12.2293C69.0616 12.2293 68.6652 12.4622 68.3927 12.9279C68.1599 13.3131 68.0447 13.7826 68.0447 14.3375C68.0447 14.8763 68.1611 15.3383 68.3927 15.7235C68.6739 16.1893 69.0653 16.4221 69.5707 16.4221C70.0661 16.4221 70.4551 16.1855 70.735 15.7111C70.9753 15.3185 71.0955 14.8528 71.0955 14.3139Z" fill="white"/>
<path d="M82.1728 11.4004L80.3458 17.2394H79.1567L78.3999 14.7039C78.2079 14.0709 78.0518 13.4417 77.9304 12.8174H77.9069C77.7942 13.459 77.6381 14.087 77.4374 14.7039L76.6336 17.2394H75.4308L73.7128 11.4004H75.0469L75.707 14.1762C75.8668 14.8327 75.9981 15.4582 76.1034 16.0503H76.127C76.2236 15.5622 76.3834 14.9404 76.6088 14.1886L77.4374 11.4016H78.4952L79.2892 14.1291C79.4812 14.7943 79.6373 15.4347 79.7574 16.0515H79.7934C79.8813 15.4508 80.0138 14.8104 80.1897 14.1291L80.8982 11.4016H82.1728V11.4004Z" fill="white"/>
<path d="M88.9022 17.2394H87.6041V13.8951C87.6041 12.8645 87.2127 12.3493 86.4274 12.3493C86.0422 12.3493 85.7313 12.4905 85.4897 12.7741C85.2507 13.0578 85.1293 13.3922 85.1293 13.7749V17.2382H83.8312V13.0689C83.8312 12.5561 83.8151 12 83.7841 11.398H84.9249L84.9856 12.3109H85.0215C85.1726 12.0272 85.3981 11.7931 85.6941 11.6061C86.0459 11.3881 86.4398 11.2778 86.8708 11.2778C87.4158 11.2778 87.8692 11.4537 88.2296 11.8067C88.678 12.239 88.9022 12.8844 88.9022 13.7415V17.2394Z" fill="white"/>
<path d="M92.4818 17.2394H91.1849V8.72119H92.4818V17.2394Z" fill="white"/>
<path d="M100.124 14.2718C100.124 15.1699 99.8681 15.9056 99.3553 16.4828C98.8177 17.0761 98.1042 17.3722 97.2161 17.3722C96.3578 17.3722 95.6753 17.0885 95.1674 16.5187C94.6596 15.9502 94.4056 15.233 94.4056 14.3684C94.4056 13.4642 94.667 12.7223 95.1922 12.1463C95.7174 11.5703 96.4234 11.2817 97.3115 11.2817C98.1699 11.2817 98.8573 11.5654 99.38 12.1339C99.8755 12.6864 100.124 13.3998 100.124 14.2718ZM98.7768 14.3139C98.7768 13.7751 98.6604 13.3131 98.4288 12.9279C98.1575 12.4622 97.7686 12.2293 97.2657 12.2293C96.743 12.2293 96.3466 12.4622 96.0753 12.9279C95.8425 13.3131 95.7273 13.7826 95.7273 14.3375C95.7273 14.8763 95.8437 15.3383 96.0753 15.7235C96.3565 16.1893 96.7479 16.4221 97.2533 16.4221C97.7488 16.4221 98.1364 16.1855 98.4164 15.7111C98.6579 15.3185 98.7768 14.8528 98.7768 14.3139Z" fill="white"/>
<path d="M106.407 17.2396H105.241L105.145 16.5671H105.109C104.71 17.1034 104.141 17.3722 103.403 17.3722C102.852 17.3722 102.406 17.195 102.07 16.8433C101.766 16.5237 101.613 16.1261 101.613 15.6542C101.613 14.9407 101.91 14.3969 102.509 14.0204C103.106 13.6438 103.946 13.4593 105.027 13.468V13.359C105.027 12.5898 104.623 12.2058 103.814 12.2058C103.238 12.2058 102.73 12.3507 102.292 12.6381L102.028 11.7859C102.571 11.4502 103.241 11.2817 104.031 11.2817C105.557 11.2817 106.322 12.0869 106.322 13.6971V15.8474C106.322 16.4308 106.351 16.8953 106.407 17.2396ZM105.059 15.233V14.3325C103.627 14.3078 102.911 14.7004 102.911 15.5092C102.911 15.814 102.993 16.0419 103.16 16.1942C103.327 16.3466 103.54 16.4221 103.794 16.4221C104.079 16.4221 104.346 16.3317 104.588 16.1521C104.832 15.9713 104.982 15.7421 105.038 15.4609C105.052 15.3978 105.059 15.321 105.059 15.233Z" fill="white"/>
<path d="M113.783 17.2394H112.631L112.57 16.3017H112.534C112.166 17.0152 111.539 17.3719 110.659 17.3719C109.955 17.3719 109.369 17.0957 108.905 16.5433C108.44 15.9908 108.209 15.2736 108.209 14.393C108.209 13.4479 108.46 12.6824 108.965 12.0977C109.455 11.5527 110.054 11.2802 110.768 11.2802C111.552 11.2802 112.101 11.5441 112.413 12.073H112.437V8.72119H113.737V15.6663C113.737 16.2348 113.752 16.7588 113.783 17.2394ZM112.437 14.7769V13.8034C112.437 13.6349 112.425 13.4987 112.401 13.3946C112.328 13.0825 112.171 12.8199 111.932 12.6081C111.691 12.3963 111.399 12.2897 111.064 12.2897C110.579 12.2897 110.2 12.4817 109.922 12.8669C109.646 13.2522 109.506 13.7439 109.506 14.3447C109.506 14.9219 109.638 15.3901 109.904 15.7505C110.186 16.1345 110.565 16.3265 111.039 16.3265C111.465 16.3265 111.806 16.1667 112.065 15.8459C112.315 15.5499 112.437 15.1931 112.437 14.7769Z" fill="white"/>
<path d="M124.885 14.2718C124.885 15.1699 124.629 15.9056 124.116 16.4828C123.578 17.0761 122.867 17.3722 121.977 17.3722C121.121 17.3722 120.438 17.0885 119.928 16.5187C119.42 15.9502 119.166 15.233 119.166 14.3684C119.166 13.4642 119.427 12.7223 119.953 12.1463C120.478 11.5703 121.184 11.2817 122.074 11.2817C122.93 11.2817 123.62 11.5654 124.14 12.1339C124.636 12.6864 124.885 13.3998 124.885 14.2718ZM123.54 14.3139C123.54 13.7751 123.423 13.3131 123.192 12.9279C122.918 12.4622 122.531 12.2293 122.026 12.2293C121.506 12.2293 121.11 12.4622 120.836 12.9279C120.603 13.3131 120.488 13.7826 120.488 14.3375C120.488 14.8763 120.604 15.3383 120.836 15.7235C121.117 16.1893 121.508 16.4221 122.014 16.4221C122.509 16.4221 122.899 16.1855 123.179 15.7111C123.418 15.3185 123.54 14.8528 123.54 14.3139Z" fill="white"/>
<path d="M131.864 17.2394H130.568V13.8951C130.568 12.8645 130.176 12.3493 129.39 12.3493C129.004 12.3493 128.694 12.4905 128.453 12.7741C128.213 13.0578 128.093 13.3922 128.093 13.7749V17.2382H126.793V13.0689C126.793 12.5561 126.779 12 126.748 11.398H127.887L127.948 12.3109H127.984C128.136 12.0272 128.362 11.7931 128.656 11.6061C129.009 11.3881 129.402 11.2778 129.834 11.2778C130.378 11.2778 130.831 11.4537 131.192 11.8067C131.642 12.239 131.864 12.8844 131.864 13.7415V17.2394Z" fill="white"/>
<path d="M140.601 12.3728H139.171V15.2093C139.171 15.9302 139.425 16.2906 139.928 16.2906C140.161 16.2906 140.354 16.2708 140.507 16.23L140.54 17.2147C140.284 17.3113 139.947 17.3596 139.532 17.3596C139.019 17.3596 138.62 17.2035 138.331 16.8914C138.042 16.5793 137.898 16.0541 137.898 15.3171V12.3728H137.044V11.4005H137.898V10.3303L139.17 9.94629V11.3992H140.599V12.3728H140.601Z" fill="white"/>
<path d="M147.473 17.2394H146.174V13.9198C146.174 12.8731 145.782 12.3492 144.998 12.3492C144.396 12.3492 143.985 12.6527 143.759 13.2596C143.721 13.3872 143.699 13.5432 143.699 13.7266V17.2381H142.402V8.72119H143.699V12.2402H143.724C144.132 11.5998 144.718 11.2802 145.477 11.2802C146.015 11.2802 146.46 11.4561 146.813 11.8091C147.252 12.2489 147.473 12.9029 147.473 13.7674V17.2394Z" fill="white"/>
<path d="M154.562 14.0434C154.562 14.2762 154.545 14.4719 154.514 14.6317H150.62C150.638 15.2089 150.824 15.6486 151.184 15.9533C151.514 16.2259 151.938 16.3621 152.459 16.3621C153.035 16.3621 153.56 16.2704 154.033 16.0859L154.236 16.9876C153.682 17.2279 153.031 17.3481 152.277 17.3481C151.372 17.3481 150.66 17.0818 150.145 16.5491C149.627 16.0165 149.371 15.3018 149.371 14.405C149.371 13.5244 149.61 12.7911 150.092 12.2064C150.594 11.5822 151.274 11.27 152.133 11.27C152.973 11.27 153.611 11.5822 154.042 12.2064C154.39 12.7019 154.562 13.315 154.562 14.0434ZM153.323 13.7077C153.333 13.3225 153.248 12.9905 153.072 12.7106C152.846 12.3501 152.503 12.1693 152.039 12.1693C151.615 12.1693 151.27 12.3452 151.006 12.6982C150.79 12.9794 150.663 13.315 150.62 13.7077H153.323Z" fill="white"/>
</svg>
