<svg width="176" height="52" viewBox="0 0 176 52" fill="none" xmlns="http://www.w3.org/2000/svg">
<path d="M169 0H6.5C2.91015 0 0 2.91015 0 6.5V45.5C0 49.0898 2.91015 52 6.5 52H169C172.59 52 175.5 49.0898 175.5 45.5V6.5C175.5 2.91015 172.59 0 169 0Z" fill="black"/>
<path d="M169 1.04C170.448 1.04 171.837 1.61525 172.861 2.6392C173.885 3.66315 174.46 5.05192 174.46 6.5V45.5C174.46 46.9481 173.885 48.3369 172.861 49.3608C171.837 50.3848 170.448 50.96 169 50.96H6.5C5.05192 50.96 3.66315 50.3848 2.6392 49.3608C1.61525 48.3369 1.04 46.9481 1.04 45.5V6.5C1.04 5.05192 1.61525 3.66315 2.6392 2.6392C3.66315 1.61525 5.05192 1.04 6.5 1.04H169ZM169 0H6.5C4.77609 0 3.12279 0.684819 1.90381 1.90381C0.684819 3.12279 0 4.77609 0 6.5V45.5C0 47.2239 0.684819 48.8772 1.90381 50.0962C3.12279 51.3152 4.77609 52 6.5 52H169C170.724 52 172.377 51.3152 173.596 50.0962C174.815 48.8772 175.5 47.2239 175.5 45.5V6.5C175.5 4.77609 174.815 3.12279 173.596 1.90381C172.377 0.684819 170.724 0 169 0Z" fill="#A6A6A6"/>
<path d="M88.5821 28.2748C87.4904 28.2799 86.4248 28.6083 85.5197 29.2185C84.6145 29.8287 83.9104 30.6934 83.4962 31.7034C83.082 32.7134 82.9763 33.8235 83.1924 34.8935C83.4085 35.9635 83.9368 36.9455 84.7105 37.7156C85.4842 38.4857 86.4687 39.0093 87.5397 39.2204C88.6107 39.4315 89.7203 39.3206 90.7284 38.9017C91.7364 38.4827 92.5978 37.7746 93.2037 36.8666C93.8097 35.9586 94.1331 34.8914 94.1331 33.7998C94.1437 33.0691 94.0071 32.3437 93.7316 31.6669C93.456 30.9901 93.0471 30.3756 92.5292 29.8601C92.0113 29.3446 91.3949 28.9386 90.7168 28.6662C90.0387 28.3939 89.3127 28.2607 88.5821 28.2748ZM88.5821 37.1538C87.9107 37.2007 87.2408 37.0446 86.6593 36.7058C86.0779 36.3669 85.6118 35.861 85.3217 35.2537C85.0316 34.6465 84.9309 33.966 85.0326 33.3008C85.1344 32.6355 85.4339 32.0163 85.8923 31.5235C86.3507 31.0308 86.9467 30.6873 87.6029 30.5378C88.259 30.3882 88.945 30.4396 89.5716 30.6851C90.1982 30.9306 90.7365 31.3589 91.1164 31.9144C91.4964 32.4699 91.7004 33.1268 91.7021 33.7998C91.723 34.2262 91.6583 34.6525 91.5119 35.0535C91.3655 35.4545 91.1402 35.8222 90.8494 36.1348C90.5587 36.4474 90.2082 36.6986 89.8188 36.8736C89.4294 37.0486 89.0089 37.1439 88.5821 37.1538ZM76.4791 28.2748C75.3869 28.2773 74.32 28.6036 73.4131 29.2122C72.5062 29.8209 71.8001 30.6846 71.3839 31.6944C70.9677 32.7042 70.8602 33.8147 71.0748 34.8856C71.2895 35.9565 71.8167 36.9397 72.5899 37.7111C73.3631 38.4825 74.3476 39.0074 75.419 39.2195C76.4903 39.4317 77.6006 39.3215 78.6094 38.9029C79.6182 38.4844 80.4803 37.7762 81.0868 36.8679C81.6933 35.9596 82.0171 34.892 82.0171 33.7998C82.0277 33.0691 81.8911 32.3437 81.6156 31.6669C81.34 30.9901 80.9311 30.3756 80.4132 29.8601C79.8953 29.3446 79.2789 28.9386 78.6008 28.6662C77.9227 28.3939 77.1967 28.2607 76.4661 28.2748H76.4791ZM76.4791 37.1538C75.8074 37.2034 75.1363 37.0496 74.5533 36.7125C73.9702 36.3754 73.5022 35.8705 73.21 35.2637C72.9179 34.6568 72.8152 33.9761 72.9154 33.3101C73.0155 32.6441 73.3139 32.0236 73.7716 31.5296C74.2293 31.0355 74.8251 30.6906 75.4815 30.5399C76.1379 30.3892 76.8245 30.4396 77.4519 30.6846C78.0793 30.9295 78.6184 31.3577 78.999 31.9133C79.3797 32.4689 79.5842 33.1263 79.5861 33.7998C79.607 34.2262 79.5423 34.6525 79.3959 35.0535C79.2495 35.4545 79.0242 35.8222 78.7334 36.1348C78.4427 36.4474 78.0922 36.6986 77.7028 36.8736C77.3134 37.0486 76.8929 37.1439 76.4661 37.1538H76.4791ZM62.0621 29.9778V32.3178H67.6781C67.59 33.4199 67.1319 34.4599 66.3781 35.2688C65.8162 35.8411 65.1408 36.2894 64.3952 36.585C63.6496 36.8805 62.8504 37.0167 62.0491 36.9848C60.3941 36.9848 58.8069 36.3273 57.6367 35.1571C56.4665 33.9869 55.8091 32.3997 55.8091 30.7448C55.8091 29.0898 56.4665 27.5026 57.6367 26.3324C58.8069 25.1622 60.3941 24.5048 62.0491 24.5048C63.6322 24.4789 65.1609 25.082 66.3001 26.1818L67.9511 24.5308C67.1821 23.7521 66.2646 23.1357 65.2531 22.7181C64.2415 22.3006 63.1564 22.0903 62.0621 22.0998C60.9064 22.0548 59.7535 22.2436 58.6725 22.6548C57.5915 23.0661 56.6046 23.6913 55.771 24.4931C54.9375 25.2948 54.2743 26.2566 53.8213 27.3208C53.3684 28.385 53.1349 29.5297 53.1349 30.6863C53.1349 31.8428 53.3684 32.9875 53.8213 34.0517C54.2743 35.1159 54.9375 36.0777 55.771 36.8795C56.6046 37.6812 57.5915 38.3065 58.6725 38.7177C59.7535 39.129 60.9064 39.3177 62.0621 39.2728C63.1748 39.323 64.2854 39.1344 65.3191 38.7196C66.3529 38.3047 67.2858 37.6733 68.0551 36.8678C69.417 35.3714 70.1442 33.4043 70.0831 31.3818C70.0873 30.889 70.0437 30.3971 69.9531 29.9128L62.0621 29.9778ZM120.965 31.7978C120.626 30.8003 119.992 29.9294 119.147 29.3003C118.302 28.6712 117.286 28.3135 116.233 28.2748C115.522 28.2734 114.818 28.4178 114.165 28.6993C113.512 28.9807 112.924 29.393 112.436 29.9109C111.949 30.4287 111.573 31.041 111.332 31.7099C111.09 32.3788 110.989 33.09 111.033 33.7998C111.017 34.5264 111.148 35.2487 111.418 35.9236C111.687 36.5985 112.09 37.2121 112.602 37.7278C113.114 38.2435 113.725 38.6507 114.398 38.9251C115.071 39.1995 115.792 39.3354 116.519 39.3248C117.428 39.3297 118.325 39.109 119.128 38.6825C119.931 38.2559 120.616 37.6369 121.121 36.8808L119.236 35.5808C118.955 36.0498 118.556 36.4377 118.08 36.7066C117.604 36.9755 117.066 37.1161 116.519 37.1148C115.956 37.1362 115.399 36.9878 114.922 36.6887C114.444 36.3896 114.068 35.9537 113.841 35.4378L121.238 32.3828L120.965 31.7978ZM113.425 33.6438C113.399 33.2417 113.453 32.8384 113.584 32.4574C113.716 32.0765 113.922 31.7257 114.191 31.4254C114.459 31.1252 114.785 30.8816 115.15 30.7089C115.514 30.5362 115.909 30.4379 116.311 30.4198C116.73 30.3921 117.149 30.4883 117.514 30.6963C117.879 30.9043 118.175 31.215 118.365 31.5898L113.425 33.6438ZM107.419 38.9998H109.85V22.7498H107.419V38.9998ZM103.441 29.5098H103.35C102.984 29.1001 102.535 28.7726 102.033 28.5485C101.531 28.3245 100.988 28.209 100.438 28.2098C99.0174 28.2787 97.6777 28.8915 96.6966 29.9213C95.7155 30.9511 95.1683 32.3189 95.1683 33.7413C95.1683 35.1636 95.7155 36.5314 96.6966 37.5612C97.6777 38.591 99.0174 39.2039 100.438 39.2728C100.989 39.282 101.535 39.1704 102.038 38.9458C102.541 38.7212 102.989 38.3891 103.35 37.9728H103.428V38.7658C103.428 40.8848 102.297 42.0158 100.477 42.0158C99.8709 42.0016 99.2827 41.8073 98.7872 41.4578C98.2918 41.1082 97.9116 40.6191 97.6951 40.0528L95.5761 40.9368C95.9749 41.907 96.6546 42.736 97.5278 43.3174C98.401 43.8988 99.428 44.206 100.477 44.1998C103.324 44.1998 105.677 42.5228 105.677 38.4408V28.5998H103.441V29.5098ZM100.659 37.1538C99.8205 37.0799 99.04 36.6945 98.4715 36.0737C97.903 35.4529 97.5877 34.6416 97.5877 33.7998C97.5877 32.958 97.903 32.1467 98.4715 31.5258C99.04 30.905 99.8205 30.5197 100.659 30.4458C101.075 30.4671 101.482 30.5714 101.857 30.7526C102.232 30.9338 102.567 31.1881 102.842 31.5007C103.117 31.8133 103.326 32.1777 103.458 32.5725C103.59 32.9674 103.642 33.3847 103.61 33.7998C103.646 34.2167 103.596 34.6364 103.465 35.0337C103.333 35.4309 103.123 35.7974 102.846 36.1109C102.569 36.4244 102.231 36.6785 101.853 36.8577C101.475 37.037 101.064 37.1377 100.646 37.1538H100.659ZM132.353 22.7498H126.542V38.9998H128.973V32.8378H132.366C133.059 32.8875 133.755 32.794 134.41 32.5631C135.065 32.3322 135.665 31.9688 136.174 31.4955C136.682 31.0223 137.088 30.4493 137.365 29.8124C137.642 29.1756 137.785 28.4884 137.785 27.7938C137.785 27.0991 137.642 26.412 137.365 25.7751C137.088 25.1382 136.682 24.5653 136.174 24.092C135.665 23.6188 135.065 23.2554 134.41 23.0244C133.755 22.7935 133.059 22.7 132.366 22.7498H132.353ZM132.353 30.5498H128.96V25.0118H132.405C133.145 25.0118 133.854 25.3056 134.377 25.8285C134.9 26.3514 135.194 27.0607 135.194 27.8003C135.194 28.5398 134.9 29.2491 134.377 29.772C133.854 30.295 133.145 30.5888 132.405 30.5888L132.353 30.5498ZM147.342 28.2098C146.457 28.1569 145.576 28.3637 144.807 28.8048C144.038 29.2459 143.414 29.9021 143.013 30.6928L145.171 31.5898C145.384 31.1976 145.706 30.8758 146.098 30.6634C146.491 30.4511 146.936 30.3574 147.381 30.3938C147.69 30.3577 148.002 30.3835 148.301 30.4696C148.599 30.5557 148.878 30.7004 149.12 30.8952C149.362 31.09 149.563 31.3311 149.711 31.6044C149.858 31.8776 149.95 32.1776 149.981 32.4868V32.6558C149.2 32.2424 148.33 32.028 147.446 32.0318C145.119 32.0318 142.766 33.3318 142.766 35.6848C142.789 36.1865 142.912 36.6785 143.129 37.1317C143.345 37.585 143.65 37.9902 144.026 38.3235C144.402 38.6568 144.84 38.9114 145.316 39.0722C145.792 39.233 146.295 39.2968 146.796 39.2598C147.408 39.3037 148.021 39.1821 148.57 38.9076C149.119 38.6331 149.584 38.2159 149.916 37.6998H149.994V38.9998H152.334V32.7468C152.334 29.8998 150.176 28.2488 147.407 28.2488L147.342 28.2098ZM147.043 37.1148C146.25 37.1148 145.145 36.7118 145.145 35.7368C145.145 34.4368 146.523 34.0078 147.745 34.0078C148.517 33.9887 149.281 34.1773 149.955 34.5538C149.874 35.2576 149.541 35.9083 149.018 36.3861C148.495 36.8639 147.816 37.1365 147.108 37.1538L147.043 37.1148ZM160.862 28.5998L158.08 35.6458H158.002L155.116 28.5998H152.516L156.845 38.4538L154.375 43.9268H156.91L163.566 28.5998H160.862ZM139.009 38.9998H141.44V22.7498H139.009V38.9998Z" fill="white"/>
<path d="M61.5648 13.3931C61.5869 13.8699 61.5119 14.3463 61.3443 14.7932C61.1767 15.2401 60.92 15.6484 60.5898 15.9931C60.2211 16.3761 59.7759 16.677 59.2831 16.8764C58.7903 17.0757 58.2611 17.169 57.7298 17.1501C56.9238 17.1438 56.1376 16.8997 55.4696 16.4485C54.8017 15.9973 54.2818 15.3591 53.975 14.6137C53.6683 13.8683 53.5883 13.0489 53.7452 12.2583C53.902 11.4677 54.2887 10.7409 54.8568 10.1691C55.2302 9.7879 55.6778 9.48739 56.172 9.28615C56.6662 9.0849 57.1964 8.9872 57.7298 8.99909C58.2794 8.99726 58.8236 9.10786 59.3288 9.32409C59.7992 9.51383 60.218 9.81231 60.5508 10.1951L59.8618 10.8841C59.6024 10.5755 59.2747 10.3314 58.9046 10.1712C58.5346 10.011 58.1324 9.93909 57.7298 9.96109C57.3238 9.95909 56.9215 10.0391 56.5471 10.1964C56.1727 10.3536 55.8339 10.5849 55.5511 10.8762C55.2682 11.1676 55.0471 11.513 54.901 11.8919C54.7549 12.2708 54.6868 12.6753 54.7008 13.0811C54.6923 13.6871 54.8634 14.282 55.1927 14.7908C55.5219 15.2996 55.9944 15.6995 56.5506 15.9401C57.1069 16.1807 57.7219 16.2511 58.3181 16.1426C58.9144 16.034 59.4651 15.7513 59.9008 15.3301C60.3008 14.8966 60.5316 14.3336 60.5508 13.7441H57.7298V12.8081H61.5128C61.5475 13.0012 61.5649 13.1969 61.5648 13.3931ZM67.5188 10.1431H64.0088V12.6131H67.2068V13.5491H64.0088V16.0191H67.5188V16.9811H62.9688V9.18109H67.5188V10.1431ZM71.7828 16.9811H70.7818V10.1431H68.5978V9.18109H74.0188V10.1431H71.7828V16.9811ZM77.8408 16.9811V9.18109H78.8418V16.9811H77.8408ZM83.2878 16.9811H82.2868V10.1431H80.1028V9.18109H85.4588V10.1431H83.2878V16.9811ZM95.6118 15.9671C94.8518 16.7228 93.8236 17.1471 92.7518 17.1471C91.68 17.1471 90.6518 16.7228 89.8918 15.9671C89.1531 15.1852 88.7416 14.1503 88.7416 13.0746C88.7416 11.9989 89.1531 10.964 89.8918 10.1821C90.2664 9.80475 90.712 9.50527 91.2028 9.30091C91.6937 9.09654 92.2201 8.99133 92.7518 8.99133C93.2835 8.99133 93.81 9.09654 94.3008 9.30091C94.7917 9.50527 95.2372 9.80475 95.6118 10.1821C96.3534 10.9625 96.767 11.998 96.767 13.0746C96.767 14.1512 96.3534 15.1867 95.6118 15.9671ZM90.6328 15.3171C91.1956 15.8775 91.9576 16.1922 92.7518 16.1922C93.5461 16.1922 94.308 15.8775 94.8708 15.3171C95.4262 14.7048 95.7339 13.9077 95.7339 13.0811C95.7339 12.2544 95.4262 11.4574 94.8708 10.8451C94.308 10.2846 93.5461 9.96996 92.7518 9.96996C91.9576 9.96996 91.1956 10.2846 90.6328 10.8451C90.0774 11.4574 89.7698 12.2544 89.7698 13.0811C89.7698 13.9077 90.0774 14.7048 90.6328 15.3171ZM98.1728 16.9811V9.18109H99.3948L103.191 15.2521V9.18109H104.192V16.9811H103.152L99.1868 10.6241V16.9811H98.1728Z" fill="white"/>
<path fill-rule="evenodd" clip-rule="evenodd" d="M92.7518 9.12133C92.2373 9.12133 91.7278 9.22315 91.2528 9.42092C90.7783 9.61849 90.3475 9.90791 89.9852 10.2725C89.27 11.0302 88.8716 12.0327 88.8716 13.0746C88.8716 14.1164 89.2699 15.1187 89.9849 15.8763C90.7204 16.607 91.7151 17.0171 92.7518 17.0171C93.7887 17.0171 94.7834 16.6069 95.5189 15.8762C96.2367 15.1201 96.637 14.1172 96.637 13.0746C96.637 12.0318 96.2366 11.0288 95.5186 10.2727C95.1563 9.908 94.7254 9.61852 94.2508 9.42092C93.7758 9.22315 93.2664 9.12133 92.7518 9.12133ZM91.1529 9.18089C91.6595 8.96994 92.203 8.86133 92.7518 8.86133C93.3007 8.86133 93.8441 8.96994 94.3508 9.18089C94.8575 9.39185 95.3174 9.70099 95.7041 10.0905L95.7061 10.0925C96.4707 10.8971 96.897 11.9647 96.897 13.0746C96.897 14.1845 96.4706 15.252 95.7061 16.0566L95.7035 16.0593C94.9192 16.8393 93.858 17.2771 92.7518 17.2771C91.6457 17.2771 90.5845 16.8392 89.8002 16.0593L89.7973 16.0564C89.0358 15.2504 88.6116 14.1835 88.6116 13.0746C88.6116 11.9657 89.0358 10.8989 89.7973 10.0928L89.7995 10.0905C90.1862 9.70096 90.6462 9.39185 91.1529 9.18089ZM57.7269 9.12905C57.2113 9.11756 56.6987 9.21201 56.221 9.40655C55.7433 9.60108 55.3106 9.89158 54.9497 10.2601L54.949 10.2607C54.399 10.8144 54.0246 11.5181 53.8727 12.2836C53.7208 13.0491 53.7982 13.8425 54.0952 14.5642C54.3923 15.2859 54.8957 15.9039 55.5424 16.3408C56.1891 16.7777 56.9504 17.014 57.7308 17.0201L57.7344 17.0201C58.2474 17.0384 58.7585 16.9484 59.2344 16.7559C59.7102 16.5634 60.1401 16.2728 60.496 15.9031C60.814 15.5711 61.0612 15.178 61.2226 14.7476C61.384 14.3171 61.4562 13.8583 61.435 13.3991L61.5648 13.3931L61.4348 13.393C61.4349 13.2408 61.424 13.0887 61.4022 12.9381H57.8598V13.6141H60.6851L60.6807 13.7483C60.6605 14.3691 60.4175 14.9618 59.9964 15.4182L59.9913 15.4237C59.5371 15.8628 58.9629 16.1573 58.3414 16.2705C57.7199 16.3836 57.0788 16.3102 56.499 16.0594C55.9192 15.8087 55.4267 15.3918 55.0835 14.8614C54.7409 14.3319 54.5625 13.713 54.5708 13.0824C54.5566 12.6602 54.6277 12.2394 54.7797 11.8451C54.9321 11.4499 55.1627 11.0896 55.4578 10.7857C55.7528 10.4817 56.1062 10.2405 56.4967 10.0765C56.8861 9.91298 57.3043 9.82952 57.7266 9.83107C58.148 9.80864 58.569 9.88423 58.9563 10.0519C59.3015 10.2014 59.6116 10.4203 59.8675 10.6945L60.3715 10.1906C60.0663 9.86626 59.6941 9.61159 59.2802 9.44465L59.2777 9.44363C58.7887 9.23437 58.2621 9.12731 57.7303 9.12909L57.7269 9.12905ZM61.6948 13.3901C61.7173 13.8835 61.6394 14.3764 61.466 14.8388C61.2922 15.3023 61.0261 15.7256 60.6837 16.083C60.3024 16.4791 59.8416 16.7907 59.3319 16.9969C58.8227 17.2029 58.2759 17.2994 57.727 17.2801C56.896 17.2732 56.0855 17.0214 55.3969 16.5563C54.7077 16.0907 54.1713 15.4322 53.8548 14.6631C53.5383 13.8941 53.4558 13.0487 53.6176 12.233C53.7795 11.4174 54.1783 10.6677 54.7643 10.0778C55.15 9.68406 55.6125 9.37364 56.123 9.16575C56.6331 8.958 57.1804 8.85704 57.7311 8.86908C58.2973 8.86742 58.858 8.9814 59.3787 9.20404C59.8677 9.40148 60.3029 9.71186 60.6489 10.1098L60.7285 10.2013L59.8535 11.0762L59.7623 10.9677C59.5158 10.6745 59.2045 10.4427 58.853 10.2905C58.5015 10.1383 58.1194 10.07 57.7369 10.0909L57.7292 10.0913C57.3406 10.0894 56.9557 10.1658 56.5974 10.3162C56.2392 10.4667 55.915 10.688 55.6443 10.9668C55.3737 11.2456 55.1621 11.5761 55.0223 11.9387C54.8825 12.3012 54.8173 12.6883 54.8307 13.0766L54.831 13.0829C54.8228 13.6632 54.9865 14.2329 55.3018 14.7202C55.6171 15.2074 56.0696 15.5904 56.6022 15.8208C57.1349 16.0512 57.7239 16.1186 58.2948 16.0147C58.8646 15.9109 59.3909 15.6411 59.8078 15.2392C60.1547 14.8621 60.3666 14.382 60.4126 13.8741H57.5998V12.6781H61.6216L61.6408 12.7851C61.6766 12.9848 61.6947 13.1872 61.6948 13.3901ZM62.8388 9.05109H67.6488V10.2731H64.1388V12.4831H67.3368V13.6791H64.1388V15.8891H67.6488V17.1111H62.8388V9.05109ZM63.0988 9.31109V16.8511H67.3888V16.1491H63.8788V13.4191H67.0768V12.7431H63.8788V10.0131H67.3888V9.31109H63.0988ZM68.4678 9.05109H74.1488V10.2731H71.9128V17.1111H70.6518V10.2731H68.4678V9.05109ZM68.7278 9.31109V10.0131H70.9118V16.8511H71.6528V10.0131H73.8888V9.31109H68.7278ZM77.7108 9.05109H78.9718V17.1111H77.7108V9.05109ZM77.9708 9.31109V16.8511H78.7118V9.31109H77.9708ZM79.9728 9.05109H85.5888V10.2731H83.4178V17.1111H82.1568V10.2731H79.9728V9.05109ZM80.2328 9.31109V10.0131H82.4168V16.8511H83.1578V10.0131H85.3288V9.31109H80.2328ZM98.0428 9.05109H99.4669L103.061 14.799V9.05109H104.322V17.1111H103.08L99.3168 11.0782V17.1111H98.0428V9.05109ZM98.3028 9.31109V16.8511H99.0568V10.17L103.224 16.8511H104.062V9.31109H103.321V15.7052L99.3228 9.31109H98.3028ZM90.5411 10.753C91.1283 10.1682 91.9232 9.83996 92.7518 9.83996C93.5805 9.83996 94.3754 10.1682 94.9626 10.753L94.9672 10.7576C95.5443 11.3938 95.8639 12.2221 95.8639 13.0811C95.8639 13.94 95.5442 14.7682 94.9671 15.4044L94.9627 15.4093C94.3755 15.994 93.5805 16.3222 92.7518 16.3222C91.9232 16.3222 91.1283 15.9939 90.5411 15.4092L90.6328 15.3171L90.5365 15.4044C89.9594 14.7682 89.6398 13.94 89.6398 13.0811C89.6398 12.2221 89.9594 11.3939 90.5365 10.7577L90.5411 10.753ZM90.7269 15.2273C91.2651 15.762 91.993 16.0622 92.7518 16.0622C93.5106 16.0622 94.2385 15.762 94.7767 15.2273C95.3091 14.6393 95.6039 13.8744 95.6039 13.0811C95.6039 12.2878 95.3091 11.5229 94.7767 10.9349C94.2385 10.4001 93.5106 10.1 92.7518 10.1C91.993 10.1 91.2651 10.4001 90.7269 10.9349C90.1946 11.5229 89.8998 12.2878 89.8998 13.0811C89.8998 13.8744 90.1946 14.6393 90.7269 15.2273Z" fill="white"/>
<path d="M13.5718 9.80194C13.1481 10.3104 12.9342 10.9613 12.9738 11.6219V40.3779C12.9342 41.0386 13.1481 41.6895 13.5718 42.1979L13.6628 42.2889L29.7698 26.1949V25.8179L13.6628 9.71094L13.5718 9.80194Z" fill="url(#paint0_linear)"/>
<path d="M35.0998 31.564L29.7698 26.195V25.818L35.0998 20.436L35.2168 20.501L41.5998 24.128C43.4198 25.155 43.4198 26.845 41.5998 27.885L35.2428 31.499L35.0998 31.564Z" fill="url(#paint1_linear)"/>
<path d="M35.2559 31.486L29.7699 26L13.5719 42.198C13.9429 42.5241 14.4161 42.7104 14.9098 42.7246C15.4036 42.7389 15.8867 42.5802 16.2759 42.276L35.2689 31.486" fill="url(#paint2_linear)"/>
<path d="M35.2558 20.5139L16.2628 9.72392C15.8737 9.41973 15.3905 9.26105 14.8968 9.2753C14.403 9.28954 13.9298 9.47581 13.5588 9.80192L29.7698 25.9999L35.2558 20.5139Z" fill="url(#paint3_linear)"/>
<path opacity="0.2" d="M35.0999 31.3691L16.2629 42.0941C15.8876 42.3748 15.4315 42.5264 14.9629 42.5264C14.4943 42.5264 14.0382 42.3748 13.6629 42.0941L13.5719 42.1851L13.6629 42.2761C14.0374 42.5588 14.4937 42.7117 14.9629 42.7117C15.4321 42.7117 15.8884 42.5588 16.2629 42.2761L35.2559 31.4861L35.0999 31.3691Z" fill="black"/>
<path opacity="0.12" d="M13.5718 42.016C13.1481 41.5076 12.9342 40.8567 12.9738 40.196V40.391C12.9342 41.0517 13.1481 41.7026 13.5718 42.211L13.6628 42.12L13.5718 42.016ZM41.5998 27.69L35.0998 31.369L35.2168 31.486L41.5998 27.872C41.962 27.7019 42.2729 27.4392 42.5011 27.1105C42.7293 26.7819 42.8669 26.3988 42.8998 26C42.8267 26.3623 42.6715 26.7031 42.4461 26.996C42.2207 27.289 41.9312 27.5264 41.5998 27.69Z" fill="black"/>
<path opacity="0.25" d="M16.2628 9.90519L41.5998 24.3092C41.9313 24.4728 42.2208 24.7102 42.4462 25.0032C42.6715 25.2961 42.8267 25.6369 42.8998 25.9992C42.8669 25.6004 42.7294 25.2173 42.5011 24.8887C42.2729 24.56 41.962 24.2973 41.5998 24.1272L16.2628 9.72319C14.4428 8.69619 12.9608 9.55419 12.9608 11.6342V11.8292C12.9998 9.73619 14.4558 8.87819 16.2628 9.90519Z" fill="white"/>
<defs>
<linearGradient id="paint0_linear" x1="28.3398" y1="11.3229" x2="6.52577" y2="33.1369" gradientUnits="userSpaceOnUse">
<stop stop-color="#00A0FF"/>
<stop offset="0.01" stop-color="#00A1FF"/>
<stop offset="0.26" stop-color="#00BEFF"/>
<stop offset="0.51" stop-color="#00D2FF"/>
<stop offset="0.76" stop-color="#00DFFF"/>
<stop offset="1" stop-color="#00E3FF"/>
</linearGradient>
<linearGradient id="paint1_linear" x1="43.9788" y1="26" x2="12.5318" y2="26" gradientUnits="userSpaceOnUse">
<stop stop-color="#FFE000"/>
<stop offset="0.41" stop-color="#FFBD00"/>
<stop offset="0.78" stop-color="#FFA500"/>
<stop offset="1" stop-color="#FF9C00"/>
</linearGradient>
<linearGradient id="paint2_linear" x1="32.2789" y1="28.99" x2="2.6909" y2="58.565" gradientUnits="userSpaceOnUse">
<stop stop-color="#FF3A44"/>
<stop offset="1" stop-color="#C31162"/>
</linearGradient>
<linearGradient id="paint3_linear" x1="9.48984" y1="0.233917" x2="22.6978" y2="13.4419" gradientUnits="userSpaceOnUse">
<stop stop-color="#32A071"/>
<stop offset="0.07" stop-color="#2DA771"/>
<stop offset="0.48" stop-color="#15CF74"/>
<stop offset="0.8" stop-color="#06E775"/>
<stop offset="1" stop-color="#00F076"/>
</linearGradient>
</defs>
</svg>
